<?xml version="1.0" encoding="UTF-8" standalone="no"?>
<!DOCTYPE svg PUBLIC "-//W3C//DTD SVG 1.0//EN" "http://www.w3.org/TR/2001/PR-SVG-20010719/DTD/svg10.dtd">
<svg width="17cm" height="9cm" viewBox="45 29 328 178" xmlns="http://www.w3.org/2000/svg" xmlns:xlink="http://www.w3.org/1999/xlink">
  <g>
    <rect style="fill: #add8e6" x="46.5" y="30.5" width="326" height="175.9"/>
    <rect style="fill: none; fill-opacity:0; stroke-width: 2; stroke: #000000" x="46.5" y="30.5" width="326" height="175.9"/>
  </g>
  <g>
    <rect style="fill: #90ee90" x="210.634" y="48.25" width="154" height="38"/>
    <rect style="fill: none; fill-opacity:0; stroke-width: 2; stroke: #000000" x="210.634" y="48.25" width="154" height="38"/>
    <text font-size="12.8" style="fill: #000000;text-anchor:middle;font-family:sans-serif;font-style:normal;font-weight:normal" x="287.634" y="71.1312">
      <tspan x="287.634" y="71.1312">Master</tspan>
    </text>
  </g>
  <g>
    <ellipse style="fill: #ffc0cb" cx="133.215" cy="164.688" rx="47.3124" ry="18.1164"/>
    <ellipse style="fill: none; fill-opacity:0; stroke-width: 2; stroke: #000000" cx="133.215" cy="164.688" rx="47.3124" ry="18.1164"/>
    <text font-size="12.8" style="fill: #000000;text-anchor:middle;font-family:sans-serif;font-style:normal;font-weight:normal" x="133.215" y="168.57">
      <tspan x="133.215" y="168.57">Pub1</tspan>
    </text>
  </g>
  <g>
    <rect style="fill: #d69ffe" x="244.45" y="146.75" width="87.35" height="38"/>
    <rect style="fill: none; fill-opacity:0; stroke-width: 2; stroke: #000000" x="244.45" y="146.75" width="87.35" height="38"/>
    <text font-size="12.8" style="fill: #000000;text-anchor:middle;font-family:sans-serif;font-style:normal;font-weight:normal" x="288.125" y="169.631">
      <tspan x="288.125" y="169.631">Channel A</tspan>
    </text>
  </g>
  <g>
    <line style="fill: none; fill-opacity:0; stroke-width: 2; stroke: #000000" x1="210.634" y1="86.25" x2="154.42" y2="144.726"/>
    <polyline style="fill: none; fill-opacity:0; stroke-width: 2; stroke: #000000" points="156.196,135.664 152.87,146.338 163.405,142.594 "/>
  </g>
  <text font-size="14.1111" style="fill: #000000;text-anchor:start;font-family:sans-serif;font-style:normal;font-weight:normal" x="129.3" y="95.15">
    <tspan x="129.3" y="95.15">Front end</tspan>
    <tspan x="129.3" y="112.789">port #</tspan>
  </text>
</svg>
