<?xml version="1.0" encoding="UTF-8" standalone="no"?>
<!DOCTYPE svg PUBLIC "-//W3C//DTD SVG 1.0//EN" "http://www.w3.org/TR/2001/PR-SVG-20010719/DTD/svg10.dtd">
<svg width="24cm" height="13cm" viewBox="45 29 477 243" xmlns="http://www.w3.org/2000/svg" xmlns:xlink="http://www.w3.org/1999/xlink">
  <g>
    <rect style="fill: #add8e6" x="46.5" y="30.5" width="474.4" height="240.7"/>
    <rect style="fill: none; fill-opacity:0; stroke-width: 2; stroke: #000000" x="46.5" y="30.5" width="474.4" height="240.7"/>
  </g>
  <g>
    <rect style="fill: #90ee90" x="206.232" y="42.76" width="154" height="38"/>
    <rect style="fill: none; fill-opacity:0; stroke-width: 2; stroke: #000000" x="206.232" y="42.76" width="154" height="38"/>
    <text font-size="12.8" style="fill: #000000;text-anchor:middle;font-family:sans-serif;font-style:normal;font-weight:normal" x="283.232" y="65.6412">
      <tspan x="283.232" y="65.6412">Master</tspan>
    </text>
  </g>
  <g>
    <ellipse style="fill: #ffc0cb" cx="128.812" cy="230.196" rx="47.3124" ry="18.1164"/>
    <ellipse style="fill: none; fill-opacity:0; stroke-width: 2; stroke: #000000" cx="128.812" cy="230.196" rx="47.3124" ry="18.1164"/>
    <text font-size="12.8" style="fill: #000000;text-anchor:middle;font-family:sans-serif;font-style:normal;font-weight:normal" x="128.812" y="234.078">
      <tspan x="128.812" y="234.078">Pub1</tspan>
    </text>
  </g>
  <g>
    <line style="fill: none; fill-opacity:0; stroke-width: 2; stroke: #000000" x1="176.125" y1="230.18" x2="245.73" y2="230.763"/>
    <polyline style="fill: none; fill-opacity:0; stroke-width: 2; stroke: #000000" points="237.925,235.697 247.966,230.781 238.008,225.698 "/>
  </g>
  <text font-size="14.1111" style="fill: #000000;text-anchor:start;font-family:sans-serif;font-style:normal;font-weight:normal" x="199.897" y="224.66">
    <tspan x="199.897" y="224.66">Pub</tspan>
  </text>
  <g>
    <ellipse style="fill: #fda0b3" cx="128.812" cy="158.876" rx="47.3124" ry="18.1164"/>
    <ellipse style="fill: none; fill-opacity:0; stroke-width: 2; stroke: #000000" cx="128.812" cy="158.876" rx="47.3124" ry="18.1164"/>
    <text font-size="12.8" style="fill: #000000;text-anchor:middle;font-family:sans-serif;font-style:normal;font-weight:normal" x="128.812" y="162.758">
      <tspan x="128.812" y="162.758">Pub2</tspan>
    </text>
  </g>
  <g>
    <line style="fill: none; fill-opacity:0; stroke-width: 2; stroke: #000000" x1="176.125" y1="158.86" x2="246.564" y2="209.2"/>
    <polyline style="fill: none; fill-opacity:0; stroke-width: 2; stroke: #000000" points="237.34,208.753 248.383,210.5 243.154,200.618 "/>
  </g>
  <text font-size="14.1111" style="fill: #000000;text-anchor:start;font-family:sans-serif;font-style:normal;font-weight:normal" x="213.5" y="180.6">
    <tspan x="213.5" y="180.6">Pub</tspan>
  </text>
  <g>
    <ellipse style="fill: #f4fa53" cx="441.813" cy="208.615" rx="47.4126" ry="18.1548"/>
    <ellipse style="fill: none; fill-opacity:0; stroke-width: 2; stroke: #000000" cx="441.813" cy="208.615" rx="47.4126" ry="18.1548"/>
    <text font-size="12.8" style="fill: #000000;text-anchor:middle;font-family:sans-serif;font-style:normal;font-weight:normal" x="441.813" y="212.496">
      <tspan x="441.813" y="212.496">Sub1</tspan>
    </text>
  </g>
  <g>
    <line style="fill: none; fill-opacity:0; stroke-width: 2; stroke: #000000" x1="337.552" y1="230.8" x2="390.234" y2="210.246"/>
    <polyline style="fill: none; fill-opacity:0; stroke-width: 2; stroke: #000000" points="384.818,217.726 392.317,209.433 381.183,208.41 "/>
  </g>
  <text font-size="14.1111" style="fill: #000000;text-anchor:start;font-family:sans-serif;font-style:normal;font-weight:normal" x="345.9" y="212.7">
    <tspan x="345.9" y="212.7">Sub</tspan>
  </text>
  <g>
    <rect style="fill: #d69ffe" x="250.202" y="211.8" width="87.35" height="38"/>
    <rect style="fill: none; fill-opacity:0; stroke-width: 2; stroke: #000000" x="250.202" y="211.8" width="87.35" height="38"/>
    <text font-size="12.8" style="fill: #000000;text-anchor:middle;font-family:sans-serif;font-style:normal;font-weight:normal" x="293.877" y="234.681">
      <tspan x="293.877" y="234.681">Channel A</tspan>
    </text>
  </g>
</svg>
