<?xml version="1.0" encoding="UTF-8" standalone="no"?>
<!DOCTYPE svg PUBLIC "-//W3C//DTD SVG 1.0//EN" "http://www.w3.org/TR/2001/PR-SVG-20010719/DTD/svg10.dtd">
<svg width="17cm" height="13cm" viewBox="45 29 332 243" xmlns="http://www.w3.org/2000/svg" xmlns:xlink="http://www.w3.org/1999/xlink">
  <g>
    <rect style="fill: #add8e6" x="46.5" y="30.5" width="329.4" height="240.7"/>
    <rect style="fill: none; fill-opacity:0; stroke-width: 2; stroke: #000000" x="46.5" y="30.5" width="329.4" height="240.7"/>
  </g>
  <g>
    <rect style="fill: #90ee90" x="206.232" y="42.75" width="154" height="38"/>
    <rect style="fill: none; fill-opacity:0; stroke-width: 2; stroke: #000000" x="206.232" y="42.75" width="154" height="38"/>
    <text font-size="12.8" style="fill: #000000;text-anchor:middle;font-family:sans-serif;font-style:normal;font-weight:normal" x="283.232" y="65.6313">
      <tspan x="283.232" y="65.6313">Master</tspan>
    </text>
  </g>
  <g>
    <ellipse style="fill: #ffc0cb" cx="128.812" cy="230.188" rx="47.3124" ry="18.1164"/>
    <ellipse style="fill: none; fill-opacity:0; stroke-width: 2; stroke: #000000" cx="128.812" cy="230.188" rx="47.3124" ry="18.1164"/>
    <text font-size="12.8" style="fill: #000000;text-anchor:middle;font-family:sans-serif;font-style:normal;font-weight:normal" x="128.812" y="234.07">
      <tspan x="128.812" y="234.07">Pub1</tspan>
    </text>
  </g>
  <g>
    <line style="fill: none; fill-opacity:0; stroke-width: 2; stroke: #000000" x1="176.125" y1="230.188" x2="245.43" y2="231.045"/>
    <polyline style="fill: none; fill-opacity:0; stroke-width: 2; stroke: #000000" points="237.605,235.948 247.666,231.072 237.729,225.949 "/>
  </g>
  <text font-size="14.1111" style="fill: #000000;text-anchor:start;font-family:sans-serif;font-style:normal;font-weight:normal" x="199.897" y="224.65">
    <tspan x="199.897" y="224.65">Pub</tspan>
  </text>
  <g>
    <ellipse style="fill: #fda0b3" cx="128.812" cy="158.866" rx="47.3124" ry="18.1164"/>
    <ellipse style="fill: none; fill-opacity:0; stroke-width: 2; stroke: #000000" cx="128.812" cy="158.866" rx="47.3124" ry="18.1164"/>
    <text font-size="12.8" style="fill: #000000;text-anchor:middle;font-family:sans-serif;font-style:normal;font-weight:normal" x="128.812" y="162.748">
      <tspan x="128.812" y="162.748">Pub2</tspan>
    </text>
  </g>
  <g>
    <line style="fill: none; fill-opacity:0; stroke-width: 2; stroke: #000000" x1="176.125" y1="158.866" x2="246.275" y2="209.483"/>
    <polyline style="fill: none; fill-opacity:0; stroke-width: 2; stroke: #000000" points="237.054,208.995 248.089,210.792 242.905,200.886 "/>
  </g>
  <text font-size="14.1111" style="fill: #000000;text-anchor:start;font-family:sans-serif;font-style:normal;font-weight:normal" x="214.5" y="182.6">
    <tspan x="214.5" y="182.6">Pub</tspan>
  </text>
  <g>
    <rect style="fill: #d69ffe" x="249.902" y="212.1" width="87.35" height="38"/>
    <rect style="fill: none; fill-opacity:0; stroke-width: 2; stroke: #000000" x="249.902" y="212.1" width="87.35" height="38"/>
    <text font-size="12.8" style="fill: #000000;text-anchor:middle;font-family:sans-serif;font-style:normal;font-weight:normal" x="293.577" y="234.981">
      <tspan x="293.577" y="234.981">Channel A</tspan>
    </text>
  </g>
</svg>
