<?xml version="1.0" encoding="UTF-8" standalone="no"?>
<!DOCTYPE svg PUBLIC "-//W3C//DTD SVG 1.0//EN" "http://www.w3.org/TR/2001/PR-SVG-20010719/DTD/svg10.dtd">
<svg width="17cm" height="9cm" viewBox="45 29 328 178" xmlns="http://www.w3.org/2000/svg" xmlns:xlink="http://www.w3.org/1999/xlink">
  <g>
    <rect style="fill: #add8e6" x="46.5" y="30.5" width="326" height="175.9"/>
    <rect style="fill: none; fill-opacity:0; stroke-width: 2; stroke: #000000" x="46.5" y="30.5" width="326" height="175.9"/>
  </g>
  <g>
    <rect style="fill: #90ee90" x="209.334" y="43.4" width="154" height="38"/>
    <rect style="fill: none; fill-opacity:0; stroke-width: 2; stroke: #000000" x="209.334" y="43.4" width="154" height="38"/>
    <text font-size="12.8" style="fill: #000000;text-anchor:middle;font-family:sans-serif;font-style:normal;font-weight:normal" x="286.334" y="66.2812">
      <tspan x="286.334" y="66.2812">Master</tspan>
    </text>
  </g>
  <g>
    <ellipse style="fill: #ffc0cb" cx="131.915" cy="159.838" rx="47.3124" ry="18.1164"/>
    <ellipse style="fill: none; fill-opacity:0; stroke-width: 2; stroke: #000000" cx="131.915" cy="159.838" rx="47.3124" ry="18.1164"/>
    <text font-size="12.8" style="fill: #000000;text-anchor:middle;font-family:sans-serif;font-style:normal;font-weight:normal" x="131.915" y="163.72">
      <tspan x="131.915" y="163.72">Pub1</tspan>
    </text>
  </g>
  <g>
    <rect style="fill: #d69ffe" x="238.5" y="133.9" width="96.65" height="54"/>
    <rect style="fill: none; fill-opacity:0; stroke-width: 2; stroke: #000000" x="238.5" y="133.9" width="96.65" height="54"/>
    <text font-size="12.8" style="fill: #000000;text-anchor:middle;font-family:sans-serif;font-style:normal;font-weight:normal" x="286.825" y="156.781">
      <tspan x="286.825" y="156.781">Channel A</tspan>
      <tspan x="286.825" y="172.781">(Forwarder)</tspan>
    </text>
  </g>
  <g>
    <line style="fill: none; fill-opacity:0; stroke-width: 2; stroke: #000000" x1="286.334" y1="81.4" x2="286.624" y2="128.43"/>
    <polyline style="fill: none; fill-opacity:0; stroke-width: 2; stroke: #000000" points="281.577,120.697 286.638,130.666 291.576,120.636 "/>
  </g>
  <text font-size="14.1111" style="fill: #000000;text-anchor:start;font-family:sans-serif;font-style:normal;font-weight:normal" x="292.3" y="100.9">
    <tspan x="292.3" y="100.9">Create </tspan>
    <tspan x="292.3" y="118.539">channel A</tspan>
  </text>
</svg>
